<svg width="18" height="17" viewBox="0 0 18 17" fill="none" xmlns="http://www.w3.org/2000/svg">
<path d="M13.7395 5.20855C13.5323 5.20855 13.3298 5.14711 13.1575 5.03199C12.9852 4.91688 12.8509 4.75326 12.7716 4.56183C12.6923 4.3704 12.6716 4.15975 12.712 3.95653C12.7524 3.75331 12.8522 3.56664 12.9987 3.42013C13.1453 3.27361 13.3319 3.17383 13.5351 3.13341C13.7384 3.09299 13.949 3.11374 14.1404 3.19303C14.3319 3.27232 14.4955 3.4066 14.6106 3.57888C14.7257 3.75116 14.7872 3.95371 14.7872 4.16092C14.7875 4.29858 14.7606 4.43494 14.708 4.56218C14.6555 4.68942 14.5783 4.80502 14.481 4.90237C14.3836 4.99971 14.268 5.07686 14.1408 5.12941C14.0136 5.18195 13.8772 5.20885 13.7395 5.20855Z" fill="#FDF7F4"/>
<path d="M9.19982 5.90649C9.75238 5.90649 10.2925 6.07034 10.752 6.37733C11.2114 6.68432 11.5695 7.12065 11.781 7.63116C11.9924 8.14166 12.0477 8.7034 11.9399 9.24535C11.8321 9.7873 11.5661 10.2851 11.1753 10.6758C10.7846 11.0666 10.2868 11.3326 9.74486 11.4404C9.20291 11.5482 8.64117 11.4929 8.13067 11.2815C7.62017 11.07 7.18383 10.7119 6.87684 10.2525C6.56985 9.79302 6.406 9.25287 6.406 8.7003C6.40679 7.95958 6.70139 7.24942 7.22516 6.72565C7.74894 6.20188 8.45909 5.90728 9.19982 5.90649ZM9.19982 4.50977C8.37101 4.50977 7.56081 4.75554 6.87168 5.216C6.18255 5.67646 5.64544 6.33093 5.32826 7.09665C5.01109 7.86237 4.92811 8.70495 5.0898 9.51784C5.25149 10.3307 5.6506 11.0774 6.23666 11.6635C6.82272 12.2495 7.5694 12.6486 8.38228 12.8103C9.19517 12.972 10.0377 12.889 10.8035 12.5719C11.5692 12.2547 12.2237 11.7176 12.6841 11.0284C13.1446 10.3393 13.3904 9.52911 13.3904 8.7003C13.3904 7.5889 12.9489 6.52302 12.163 5.73715C11.3771 4.95127 10.3112 4.50977 9.19982 4.50977Z" fill="#FDF7F4"/>
<path d="M12.3795 1.67937C13.2806 1.68206 14.144 2.0412 14.7811 2.67836C15.4183 3.31551 15.7774 4.17891 15.7801 5.07998V11.8805C15.7774 12.7816 15.4183 13.645 14.7811 14.2821C14.144 14.9193 13.2806 15.2784 12.3795 15.2811H5.57901C4.67794 15.2784 3.81454 14.9193 3.17738 14.2821C2.54022 13.645 2.18108 12.7816 2.17839 11.8805V5.07998C2.18108 4.17891 2.54022 3.31551 3.17738 2.67836C3.81454 2.0412 4.67794 1.68206 5.57901 1.67937H12.3795ZM12.3795 0.319336H5.57901C2.9606 0.319336 0.818359 2.46157 0.818359 5.07998V11.8805C0.818359 14.4989 2.9606 16.6411 5.57901 16.6411H12.3795C14.9979 16.6411 17.1402 14.4989 17.1402 11.8805V5.07998C17.1402 2.46157 14.9979 0.319336 12.3795 0.319336Z" fill="#FDF7F4"/>
</svg>
