<svg width="20" height="20" viewBox="0 0 20 20" fill="none" xmlns="http://www.w3.org/2000/svg">
<path d="M15.3317 8.06441C15.3259 7.62847 15.2443 7.19687 15.0906 6.78891C14.9572 6.4448 14.7536 6.13229 14.4926 5.87134C14.2317 5.61039 13.9192 5.40674 13.575 5.2734C13.1723 5.12223 12.7469 5.04049 12.3168 5.03166C11.7631 5.00691 11.5876 5 10.182 5C8.77641 5 8.59625 5 8.04657 5.03166C7.6167 5.04055 7.19145 5.12229 6.78891 5.2734C6.44475 5.40664 6.13219 5.61026 5.87122 5.87122C5.61026 6.13219 5.40664 6.44475 5.2734 6.78891C5.12193 7.19132 5.04036 7.61667 5.03223 8.04657C5.00748 8.60085 5 8.77641 5 10.182C5 11.5876 5 11.7671 5.03223 12.3174C5.04087 12.7479 5.12202 13.1727 5.2734 13.5762C5.40687 13.9203 5.61063 14.2327 5.87168 14.4935C6.13274 14.7544 6.44533 14.9579 6.78949 15.0911C7.19092 15.2484 7.61624 15.336 8.04714 15.3501C8.60143 15.3749 8.77698 15.3824 10.1826 15.3824C11.5881 15.3824 11.7683 15.3824 12.318 15.3501C12.748 15.3417 13.1735 15.2601 13.5762 15.109C13.9202 14.9755 14.2327 14.7718 14.4936 14.5109C14.7545 14.2499 14.9582 13.9375 15.0917 13.5935C15.2431 13.1906 15.3242 12.7658 15.3329 12.3347C15.3576 11.781 15.3651 11.6054 15.3651 10.1992C15.364 8.79367 15.364 8.61524 15.3317 8.06441ZM10.1785 12.84C8.70849 12.84 7.5176 11.6491 7.5176 10.1791C7.5176 8.70906 8.70849 7.51818 10.1785 7.51818C10.8842 7.51818 11.5611 7.79853 12.0601 8.29755C12.5591 8.79657 12.8395 9.47338 12.8395 10.1791C12.8395 10.8848 12.5591 11.5616 12.0601 12.0607C11.5611 12.5597 10.8842 12.84 10.1785 12.84ZM12.9454 8.04023C12.8639 8.04031 12.7831 8.02431 12.7078 7.99316C12.6325 7.962 12.5641 7.9163 12.5064 7.85867C12.4488 7.80104 12.4031 7.73261 12.372 7.65729C12.3408 7.58198 12.3248 7.50126 12.3249 7.41975C12.3249 7.33831 12.3409 7.25766 12.3721 7.18242C12.4033 7.10717 12.4489 7.0388 12.5065 6.98121C12.5641 6.92362 12.6325 6.87794 12.7077 6.84677C12.783 6.8156 12.8636 6.79956 12.9451 6.79956C13.0265 6.79956 13.1072 6.8156 13.1824 6.84677C13.2577 6.87794 13.326 6.92362 13.3836 6.98121C13.4412 7.0388 13.4869 7.10717 13.5181 7.18242C13.5492 7.25766 13.5653 7.33831 13.5653 7.41975C13.5653 7.7628 13.2878 8.04023 12.9454 8.04023Z" fill="#999999"/>
<path d="M10.1787 11.9072C11.1333 11.9072 11.9072 11.1333 11.9072 10.1787C11.9072 9.22406 11.1333 8.4502 10.1787 8.4502C9.22406 8.4502 8.4502 9.22406 8.4502 10.1787C8.4502 11.1333 9.22406 11.9072 10.1787 11.9072Z" fill="#999999"/>
<rect x="0.4" y="0.4" width="19.2" height="19.2" rx="2.6" stroke="#C4C4C4" stroke-width="0.8"/>
</svg>
