<svg width="20" height="20" viewBox="0 0 20 20" fill="none" xmlns="http://www.w3.org/2000/svg">
<path d="M16 7.0654C15.5952 7.24609 15.1603 7.36822 14.7038 7.42316C15.1698 7.14197 15.5276 6.6967 15.6961 6.16616C15.2531 6.43082 14.7684 6.61728 14.263 6.7175C13.8513 6.27595 13.2649 6 12.6157 6C11.3694 6 10.3589 7.01729 10.3589 8.272C10.3589 8.4501 10.3789 8.62348 10.4173 8.78982C8.54174 8.69503 6.87885 7.79052 5.76575 6.4159C5.57153 6.75146 5.46024 7.1418 5.46024 7.55813C5.46024 8.3464 5.85869 9.0418 6.4642 9.44927C6.10582 9.43797 5.75533 9.34052 5.44198 9.16505C5.44185 9.17457 5.44185 9.18408 5.44185 9.19365C5.44185 10.2945 6.21975 11.2128 7.25212 11.4215C6.9198 11.5125 6.57121 11.5258 6.23299 11.4605C6.52015 12.3631 7.35361 13.02 8.34112 13.0383C7.56876 13.6477 6.59564 14.011 5.53836 14.011C5.35617 14.011 5.17656 14.0002 5 13.9792C5.99872 14.6239 7.18496 15 8.45941 15C12.6105 15 14.8804 11.5379 14.8804 8.53549C14.8804 8.43695 14.8783 8.33896 14.8739 8.24154C15.3157 7.91999 15.697 7.52171 16 7.0654Z" fill="#999999"/>
<rect x="0.4" y="0.4" width="19.2" height="19.2" rx="2.6" stroke="#C4C4C4" stroke-width="0.8"/>
</svg>
