<svg width="25" height="21" viewBox="0 0 25 21" fill="none" xmlns="http://www.w3.org/2000/svg">
<rect width="25" height="21" rx="4" fill="#00AAA1"/>
<path d="M8.28157 12.5252L7.37807 12.658C7.35149 12.6143 7.32566 12.5703 7.30056 12.5259C8.99412 12.5617 10.6873 11.8628 11.8661 10.4655C13.0449 9.0683 13.4487 7.2816 13.1283 5.61824C13.1763 5.63551 13.224 5.65357 13.2715 5.6724L13.2928 6.58537C13.3256 7.99849 12.8461 9.40248 11.9147 10.5065C10.9832 11.6105 9.68004 12.3196 8.28157 12.5252ZM8.3774 13.8254C7.97995 13.49 7.65115 13.1017 7.39145 12.6799L7.97825 13.3494C8.11534 13.5058 8.26567 13.648 8.41837 13.7768C10.4218 15.467 13.4274 15.2122 15.1176 13.2087C16.8079 11.2053 16.553 8.1997 14.5496 6.50946C14.3969 6.38063 14.2314 6.25639 14.0542 6.1476L13.2953 5.68191C13.7549 5.86688 14.1931 6.12559 14.5905 6.46091C16.623 8.17563 16.8809 11.2172 15.1662 13.2497C13.4515 15.2822 10.4099 15.5401 8.3774 13.8254Z" fill="white" stroke="black"/>
</svg>
