<svg width="24" height="24" viewBox="0 0 24 24" fill="none" xmlns="http://www.w3.org/2000/svg">
<circle cx="12" cy="12" r="12" fill="#00AAA1"/>
<path d="M19.6369 8.92811C19.115 9.14714 18.5543 9.29516 17.9658 9.36176C18.5666 9.02092 19.0279 8.4812 19.2451 7.83813C18.6739 8.15892 18.0491 8.38494 17.3975 8.50642C16.8667 7.97121 16.1106 7.63672 15.2737 7.63672C13.6668 7.63672 12.3641 8.8698 12.3641 10.3907C12.3641 10.6065 12.3898 10.8167 12.4394 11.0183C10.0213 10.9034 7.8774 9.80704 6.44232 8.14084C6.19192 8.54758 6.04844 9.02071 6.04844 9.52536C6.04844 10.4808 6.56215 11.3238 7.34281 11.8176C6.88077 11.804 6.42889 11.6858 6.0249 11.4731C6.02473 11.4847 6.02473 11.4962 6.02473 11.5078C6.02473 12.8421 7.02765 13.9553 8.35864 14.2083C7.93019 14.3185 7.48077 14.3347 7.04472 14.2554C7.41494 15.3496 8.48949 16.1458 9.76264 16.168C8.76687 16.9067 7.51227 17.347 6.14916 17.347C5.91427 17.347 5.68271 17.3339 5.45508 17.3085C6.74269 18.0899 8.27205 18.5458 9.91515 18.5458C15.267 18.5458 18.1935 14.3493 18.1935 10.71C18.1935 10.5906 18.1907 10.4718 18.185 10.3537C18.7547 9.96398 19.2463 9.48121 19.6369 8.92811Z" fill="white"/>
</svg>
